Coordinates
version=1
nRows=10
nColumns=33
inDegrees=yes

Units are S.I. units (second, meters, Newtons, ...)
Angles are in degrees.

endheader
time	ground_thorax_rot_x	ground_thorax_rot_y	ground_thorax_rot_z	ground_thorax_tx	ground_thorax_ty	ground_thorax_tz	clav_prot_r	clav_elev_r	scapula_abduction_r	scapula_elevation_r	scapula_upward_rot_r	scapula_winging_r	shoulder_elv_r	plane_of_elev_r	axial_rot_r	elbow_flexion_r	pro_sup_r	wrist_flex_r	wrist_dev_r	clav_prot_l	clav_elev_l	scapula_abduction_l	scapula_elevation_l	scapula_upward_rot_l	scapula_winging_l	shoulder_elv_l	plane_of_elev_l	axial_rot_l	elbow_flexion_l	pro_sup_l	wrist_flex_l	wrist_dev_l
      7.58000000	     39.69355234	     11.97788015	     13.41902351	   -178.09185737	    818.66916198	      2.25084259	     15.46316234	     37.43966409	     40.07864198	     45.00000000	    -43.85052967	  -1883.90288604	  -3705.73878142	    142.26635896	    179.99999979	   1092.50229179	     47.92700669	     22.53306219	      9.77950668	      7.59955976	    -45.00000000	    -38.65737375	     45.00000000	    -45.00000000	   1173.05981395	  -1170.40593902	    133.71071837	   -179.99999979	   -348.62745924	     32.87439520	      6.93140640	    -22.08219180
      7.59000000	     39.74594748	     11.81928627	     13.20142815	   -180.33519781	    819.90689119	      2.15937403	     15.33285401	     37.55958535	     39.95104800	     45.00000000	    -43.85849944	  -1883.98347224	  -3705.61839316	    142.30634666	    179.99999979	   1092.62893914	     47.83864448	     22.61289191	      9.79756193	      7.58757690	    -45.00000000	    -38.76818088	     45.00000000	    -45.00000000	   1173.20777103	  -1170.35034375	    133.80648197	   -179.99999979	   -348.51654768	     32.62828621	      6.91157716	    -22.12789885
      7.60000000	     39.78514958	     11.71710757	     13.13827793	   -182.53199484	    821.13234435	      2.06839545	     15.26839170	     37.39388248	     39.88640621	     45.00000000	    -44.01119564	  -1884.06188342	  -3705.54526720	    142.25630721	    179.99999979	   1092.62201207	     47.71598527	     22.60495506	      9.71707978	      7.65978309	    -45.00000000	    -38.60421056	     45.00000000	    -45.00000000	   1173.45250230	  -1170.26419117	    133.78189848	   -179.99999979	   -348.54235243	     32.39760257	      6.88768162	    -22.14560011
      7.61000000	     39.81849561	     11.51226665	     12.95761808	   -184.68286546	    822.34498106	      1.97781942	     15.18781066	     37.26668798	     39.85236068	     45.00000000	    -44.05897013	  -1884.11125186	  -3705.48707407	    142.27637499	    179.99999979	   1092.62904782	     47.56612364	     22.59439177	      9.62401114	      7.71158024	    -45.00000000	    -38.63173083	     45.00000000	    -45.00000000	   1173.64238263	  -1170.19614550	    133.80484776	   -179.99999979	   -348.53326258	     32.22069771	      6.89366876	    -22.19509702
      7.62000000	     39.88160572	     11.32137639	     12.69336508	   -186.79160457	    823.54601765	      1.88808769	     15.07581401	     37.34120598	     39.71631558	     45.00000000	    -43.99734919	  -1884.19771089	  -3705.38328912	    142.32772069	    179.99999979	   1092.71983817	     47.41739405	     22.64590121	      9.61837386	      7.70654167	    -45.00000000	    -38.68409903	     45.00000000	    -45.00000000	   1173.77281467	  -1170.13174357	    133.84667584	   -179.99999979	   -348.43718976	     32.07713429	      6.87325145	    -22.24559658
      7.63000000	     39.89587633	     11.14104409	     12.58131127	   -188.85228221	    824.73059011	      1.80122654	     15.00407520	     37.26320434	     39.63539527	     45.00000000	    -44.10509230	  -1884.24443969	  -3705.29470113	    142.28372613	    179.99999979	   1092.75305996	     47.23283089	     22.63830114	      9.55655325	      7.77342347	    -45.00000000	    -38.63508927	     45.00000000	    -45.00000000	   1173.98024244	  -1170.08706046	    133.87942526	   -179.99999979	   -348.44909993	     31.97143374	      6.85832945	    -22.27463722
      7.64000000	     39.91146905	     11.00136124	     12.47504485	   -190.86847921	    825.89875038	      1.71996173	     14.98624095	     37.04730222	     39.64915785	     45.00000000	    -44.52811941	  -1884.33850959	  -3705.14025525	    142.20216487	    179.99999979	   1092.77684263	     46.99743330	     22.57029678	      9.43041199	      7.85967089	    -45.00000000	    -38.66089094	     45.00000000	    -45.00000000	   1174.19199526	  -1170.06783555	    133.90996456	   -179.99999979	   -348.44942239	     31.89025330	      6.86586090	    -22.31557286
      7.65000000	     39.92184807	     10.87515367	     12.39151376	   -192.84034339	    827.04824376	      1.64807330	     14.95926129	     36.84125612	     39.68589581	     45.00000000	    -44.91703984	  -1884.42973682	  -3705.02043010	    142.18426352	    179.99999979	   1092.83826281	     46.68280278	     22.49051551	      9.27926427	      7.94571360	    -45.00000000	    -38.73996151	     45.00000000	    -45.00000000	   1174.41970519	  -1170.10536274	    133.98426370	   -179.99999979	   -348.42152564	     31.85063348	      6.88950550	    -22.37725568
      7.66000000	     39.91990615	     10.61376346	     12.22287059	   -194.76870538	    828.17669301	      1.58967875	     14.88627733	     36.81254722	     39.57662621	     45.00000000	    -45.00000000	  -1884.47311850	  -3704.93636834	    142.09034393	    179.99999979	   1092.92842643	     46.39383312	     22.49624310	      9.25402390	      7.98424069	    -45.00000000	    -38.75869190	     45.00000000	    -45.00000000	   1174.61047148	  -1170.06441971	    134.06403672	   -179.99999979	   -348.40896714	     31.83113087	      6.86807073	    -22.40569439
      7.67000000	     39.96894091	     10.47898229	     12.03787889	   -196.64971559	    829.27887383	      1.54842686	     14.78350120	     36.87111990	     39.49444231	     45.00000000	    -45.00000000	  -1884.55975236	  -3704.84202104	    142.15323421	    179.99999979	   1092.96019429	     46.13295753	     22.52017759	      9.27246052	      7.98922829	    -45.00000000	    -38.76755699	     45.00000000	    -45.00000000	   1174.72825249	  -1170.04196368	    134.11479395	   -179.99999979	   -348.33050833	     31.81585716	      6.81919021	    -22.43326991
